<svg xmlns="http://www.w3.org/2000/svg" xmlns:xlink="http://www.w3.org/1999/xlink" width="220" height="50" viewBox="0 0 220 50">
  <defs>
    <clipPath id="clip-path">
      <rect id="長方形_262" data-name="長方形 262" width="220" height="50" transform="translate(470 34)" fill="#818181"/>
    </clipPath>
  </defs>
  <g id="マスクグループ_2" data-name="マスクグループ 2" transform="translate(-470 -34)" clip-path="url(#clip-path)">
    <g id="logo" transform="translate(472.466 34)">
      <g id="グループ_1187" data-name="グループ 1187">
        <path id="パス_2229" data-name="パス 2229" d="M76.6,11.732a6.989,6.989,0,0,1,2.688-.473,2.855,2.855,0,0,1,2.381,1.068,4.835,4.835,0,0,1,.84,3.047A15.722,15.722,0,0,1,80.222,23a23.354,23.354,0,0,1-5.717,6.846q-3.428,2.771-6.487,2.767c-.508,0-1.094-.026-1.751-.079a35.235,35.235,0,0,1-3.4,5.988q-1.523,2.022-3.047,2.022a1.783,1.783,0,0,1-1.488-.683,3.018,3.018,0,0,1-.534-1.909q0-3.927,3.625-10.506a40.677,40.677,0,0,1,7.967-10.541,18.058,18.058,0,0,0,.613-3.677,14.99,14.99,0,0,0-.079-1.777L72.676,11c0,.175-.114,1.3-.341,3.353A29.167,29.167,0,0,1,76.6,11.732Zm-13,18.053,1.068.534A56.769,56.769,0,0,0,68.71,19.8a49.206,49.206,0,0,0-5.761,8.921c-1.5,3.029-2.25,5.349-2.25,6.978,0,.482.149.727.455.727.228,0,.639-.473,1.217-1.427a20.81,20.81,0,0,0,1.488-2.915A3.387,3.387,0,0,1,62.9,31.4Zm3.467,1.068.727.035q3.7,0,6.943-3.887a22.369,22.369,0,0,0,3.108-5.148,12.733,12.733,0,0,0,1.278-4.92,2.5,2.5,0,0,0-.6-1.751,2.1,2.1,0,0,0-1.62-.648q-1.865,0-4.955,2.057Q71.253,21.739,67.064,30.853Z" fill="#414b46"/>
        <path id="パス_2230" data-name="パス 2230" d="M94.292,31.466l.876.648a5.819,5.819,0,0,1-1.961,2.171A4.631,4.631,0,0,1,90.6,35.318c-1.5,0-2.25-.788-2.25-2.364a7.871,7.871,0,0,1,.569-2.635l-1.41,1.453a13.927,13.927,0,0,1-3.563,2.819,6.816,6.816,0,0,1-2.959.727,2.783,2.783,0,0,1-2.189-.823,3.233,3.233,0,0,1-.744-2.268,8.486,8.486,0,0,1,2.057-5.279,15.71,15.71,0,0,1,5.262-4.255,14.343,14.343,0,0,1,6.409-1.681l.079,1.261-1.6.341a13.749,13.749,0,0,0-6.12,3.047q-2.653,2.285-2.653,4.561c0,1.515.613,2.268,1.83,2.268q1.72,0,4.237-2.4a21.181,21.181,0,0,0,4.194-5.647l1.6.954q-2.364,4.767-2.364,6.067a1.214,1.214,0,0,0,.359.893,1.028,1.028,0,0,0,.727.359,1.78,1.78,0,0,0,.473-.035c.079-.026.149-.061.228-.1a1.949,1.949,0,0,0,.289-.175,3.1,3.1,0,0,0,.306-.228c.088-.079.236-.193.438-.341S94.169,31.562,94.292,31.466Z" fill="#414b46"/>
        <path id="パス_2231" data-name="パス 2231" d="M110.734,33.943l.035.919c-.254.149-1.41.613-3.467,1.375q-1.221,7.289-3.581,10.524A6.984,6.984,0,0,1,97.925,50a3.306,3.306,0,0,1-2.556-1.033,3.752,3.752,0,0,1-.954-2.67,8.362,8.362,0,0,1,3.012-6.12,21.081,21.081,0,0,1,8.046-4.483q.578-2.561,2.057-7.205a18.581,18.581,0,0,1-4.631,5.262,6.969,6.969,0,0,1-3.756,1.375,3.316,3.316,0,0,1-2.539-.919,3.41,3.41,0,0,1-.858-2.443,8.239,8.239,0,0,1,2.1-5.13,16.384,16.384,0,0,1,5.279-4.272,13.326,13.326,0,0,1,6.164-1.655l.306,1.331a13.349,13.349,0,0,0-7.267,2.977Q99.3,27.535,99.3,29.855a2.261,2.261,0,0,0,.613,1.637,1.969,1.969,0,0,0,1.488.648c.867,0,2.171-.919,3.931-2.749a24.119,24.119,0,0,0,3.7-4.693l1.41.8a66.589,66.589,0,0,0-2.9,9.455Zm-5.5,2.9a19.13,19.13,0,0,0-5.489,3.66c-1.453,1.427-2.171,2.723-2.171,3.887a2.084,2.084,0,0,0,.534,1.488,1.73,1.73,0,0,0,1.331.569c1.068,0,2.119-.753,3.169-2.25A20.911,20.911,0,0,0,105.236,36.841Z" fill="#414b46"/>
        <path id="パス_2232" data-name="パス 2232" d="M116.608,31.658l.8.648a16.736,16.736,0,0,1-2.233,2.915,2.934,2.934,0,0,1-2.075.893,2.265,2.265,0,0,1-1.865-.919,3.587,3.587,0,0,1-.727-2.285q0-2.666,3.511-11.5a138.633,138.633,0,0,1,7.205-15.54l1.681.919q-3.743,7.249-6.75,14.393t-3.012,10.278c0,1.2.447,1.795,1.331,1.795C115.181,33.26,115.89,32.726,116.608,31.658Z" fill="#414b46"/>
        <path id="パス_2233" data-name="パス 2233" d="M125.223,30.4l.762.648a9.5,9.5,0,0,1-2.425,2.994,4.542,4.542,0,0,1-2.723,1.243c-1.427,0-2.136-.989-2.136-2.977q0-3.7,3.047-9.648c.455-.867.727-1.375.8-1.523l1.637.989a35.231,35.231,0,0,0-1.961,4.614,16.443,16.443,0,0,0-1.164,4.062,1.732,1.732,0,0,0,.385,1.278,1.257,1.257,0,0,0,.919.385C123.052,32.455,124.006,31.772,125.223,30.4Zm.5-11.25c-1.427,0-2.136-.569-2.136-1.716a2.409,2.409,0,0,1,.534-1.6,1.713,1.713,0,0,1,1.375-.648,1.938,1.938,0,0,1,1.375.5,1.678,1.678,0,0,1,.534,1.3,2.614,2.614,0,0,1-.455,1.488A1.426,1.426,0,0,1,125.722,19.147Z" fill="#414b46"/>
        <path id="パス_2234" data-name="パス 2234" d="M143.372,30.7l.8.613a8.121,8.121,0,0,1-2.311,2.819,4.522,4.522,0,0,1-2.653,1.147,2.52,2.52,0,0,1-1.865-.683,2.336,2.336,0,0,1-.683-1.716,9.922,9.922,0,0,1,1.313-3.607,9.736,9.736,0,0,0,1.313-3.791,1.349,1.349,0,0,0-.438-.972,1.435,1.435,0,0,0-1.051-.438q-1.944,0-3.931,2.959a57.133,57.133,0,0,0-4.421,8.527l-2.285-.8a59.731,59.731,0,0,1,2.075-8.641,28.922,28.922,0,0,1,2.5-6.041l1.567.5a84.5,84.5,0,0,0-2.705,9.342q5.266-9,9.683-9a2.125,2.125,0,0,1,1.585.648,2.1,2.1,0,0,1,.63,1.523,5.246,5.246,0,0,1-.228,1.585c-.149.473-.63,1.567-1.427,3.283a11.918,11.918,0,0,0-1.2,3.222,1.319,1.319,0,0,0,.385,1.007,1.076,1.076,0,0,0,.727.359,1.221,1.221,0,0,0,.569-.114,3.7,3.7,0,0,0,.517-.341c.193-.149.359-.289.517-.42s.333-.3.552-.517A3.911,3.911,0,0,1,143.372,30.7Z" fill="#414b46"/>
        <path id="パス_2235" data-name="パス 2235" d="M160.69,31.466l.876.648a5.819,5.819,0,0,1-1.961,2.171A4.631,4.631,0,0,1,157,35.318c-1.5,0-2.25-.788-2.25-2.364a7.87,7.87,0,0,1,.569-2.635l-1.41,1.453a13.927,13.927,0,0,1-3.563,2.819,6.816,6.816,0,0,1-2.959.727,2.782,2.782,0,0,1-2.189-.823,3.233,3.233,0,0,1-.744-2.268,8.486,8.486,0,0,1,2.057-5.279,15.71,15.71,0,0,1,5.262-4.255,14.343,14.343,0,0,1,6.409-1.681l.079,1.261-1.6.341a13.749,13.749,0,0,0-6.12,3.047q-2.653,2.285-2.653,4.561c0,1.515.613,2.268,1.83,2.268q1.72,0,4.237-2.4a21.182,21.182,0,0,0,4.194-5.647l1.6.954q-2.364,4.767-2.364,6.067a1.214,1.214,0,0,0,.359.893,1.028,1.028,0,0,0,.727.359,1.78,1.78,0,0,0,.473-.035c.079-.026.149-.061.228-.1a1.95,1.95,0,0,0,.289-.175,3.1,3.1,0,0,0,.306-.228c.088-.079.236-.193.438-.341S160.567,31.562,160.69,31.466Z" fill="#414b46"/>
        <path id="パス_2236" data-name="パス 2236" d="M183.112,20.478l1.068.989-2.285,2.784a38.165,38.165,0,0,0-5.988,9.919c-.333.683-.665,1.033-1.007,1.033a2.288,2.288,0,0,1-.84-.131c-.219-.088-.455-.411-.727-.972a6.662,6.662,0,0,1-.552-2.022q-.158-1.182-.263-2.022c-.079-.56-.131-.972-.149-1.243s-.061-.543-.1-.84-.07-.517-.1-.665-.053-.306-.079-.455a2.473,2.473,0,0,0-.114-.438,2.658,2.658,0,0,1-.114-.385,6.045,6.045,0,0,0-.175-.6c-.088-.28-.158-.517-.21-.727a20.722,20.722,0,0,0-3.4,5.034c-.359.735-1.059,2.215-2.1,4.421a1.053,1.053,0,0,1-.937.727,2.878,2.878,0,0,1-.954-.131c-.245-.088-.49-.385-.744-.893a7.279,7.279,0,0,1-.569-2.285,74.427,74.427,0,0,0-1.751-10.454,8.343,8.343,0,0,1,2.215-.306,10.451,10.451,0,0,1,.5,2.1c.429,2.268.981,4.92,1.637,7.967a47.864,47.864,0,0,1,4.141-6.619q2.272-3.034,2.994-3.029c.56,0,.946.385,1.164,1.164a24.6,24.6,0,0,1,.569,3.887,35.4,35.4,0,0,0,.665,4.561A44.43,44.43,0,0,1,183.112,20.478Z" fill="#414b46"/>
        <path id="パス_2237" data-name="パス 2237" d="M197.531,31.466l.876.648a5.819,5.819,0,0,1-1.961,2.171,4.631,4.631,0,0,1-2.609,1.033c-1.5,0-2.25-.788-2.25-2.364a7.871,7.871,0,0,1,.569-2.635l-1.41,1.453a13.927,13.927,0,0,1-3.563,2.819,6.816,6.816,0,0,1-2.959.727,2.783,2.783,0,0,1-2.189-.823,3.233,3.233,0,0,1-.744-2.268,8.486,8.486,0,0,1,2.057-5.279,15.71,15.71,0,0,1,5.262-4.255,14.343,14.343,0,0,1,6.409-1.681l.079,1.261-1.6.341a13.749,13.749,0,0,0-6.12,3.047q-2.653,2.285-2.653,4.561c0,1.515.613,2.268,1.83,2.268q1.72,0,4.237-2.4a21.181,21.181,0,0,0,4.194-5.647l1.6.954q-2.364,4.767-2.364,6.067a1.214,1.214,0,0,0,.359.893,1.028,1.028,0,0,0,.727.359,1.78,1.78,0,0,0,.473-.035c.079-.026.149-.061.228-.1a1.95,1.95,0,0,0,.289-.175,3.1,3.1,0,0,0,.306-.228c.088-.079.236-.193.438-.341S197.4,31.562,197.531,31.466Z" fill="#414b46"/>
        <path id="パス_2238" data-name="パス 2238" d="M214.271,30.7l.8.613a8.121,8.121,0,0,1-2.311,2.819,4.522,4.522,0,0,1-2.653,1.147,2.52,2.52,0,0,1-1.865-.683,2.336,2.336,0,0,1-.683-1.716,9.922,9.922,0,0,1,1.313-3.607,9.736,9.736,0,0,0,1.313-3.791,1.349,1.349,0,0,0-.438-.972,1.435,1.435,0,0,0-1.051-.438q-1.944,0-3.931,2.959a57.133,57.133,0,0,0-4.421,8.527l-2.285-.8a59.729,59.729,0,0,1,2.075-8.641,28.923,28.923,0,0,1,2.5-6.041l1.567.5a84.5,84.5,0,0,0-2.705,9.342q5.266-9,9.683-9a2.125,2.125,0,0,1,1.585.648,2.1,2.1,0,0,1,.63,1.523,5.246,5.246,0,0,1-.228,1.585c-.149.473-.63,1.567-1.427,3.283a11.917,11.917,0,0,0-1.2,3.222,1.319,1.319,0,0,0,.385,1.007,1.076,1.076,0,0,0,.727.359,1.221,1.221,0,0,0,.569-.114,3.7,3.7,0,0,0,.517-.341c.193-.149.359-.289.517-.42s.333-.3.552-.517A3.344,3.344,0,0,1,214.271,30.7Z" fill="#414b46"/>
      </g>
      <g id="グループ_1188" data-name="グループ 1188">
        <path id="パス_2239" data-name="パス 2239" d="M14.017,14.612s.1.236.289.674a14.358,14.358,0,0,0,.946,1.751A11.841,11.841,0,0,0,17.2,19.279,10.824,10.824,0,0,0,20.312,21.2a9.94,9.94,0,0,0,1.944.543c.088.018.166.026.254.044l.131.026.131.009.525.053.131.018h.4c.088,0,.175,0,.271.009h.149c-.088-.009-.009,0-.026,0h.123a5.453,5.453,0,0,0,.6-.035l.245-.026.271-.035a9.391,9.391,0,0,0,1.077-.219,10.277,10.277,0,0,0,2.075-.832,9.292,9.292,0,0,0,3.336-3.082,10.279,10.279,0,0,0,.569-1.007,9.563,9.563,0,0,0,.438-1.077c.07-.184.114-.368.166-.56l.061-.28c.026-.1.044-.193.061-.289l.053-.289.035-.289c.018-.1.026-.193.035-.289l.009-.149.009-.07v-.009l.018-.376.009-.184v-.376l-.018-.289c-.009-.193-.044-.385-.053-.578-.035-.193-.053-.385-.1-.569a8.12,8.12,0,0,0-.3-1.121A9.562,9.562,0,0,0,32.507,8.8a9.41,9.41,0,0,0-2.915-3.485,9.9,9.9,0,0,0-1.944-1.086,10.6,10.6,0,0,0-2.1-.6l-.07-.009-.035-.009c.026,0-.088-.009.061,0h-.018L25.328,3.6c-.105-.009-.21-.018-.315-.035s-.21-.018-.315-.035l-.158-.018h-.123c-.158,0-.315-.009-.473-.018l-.123-.009-.131.009c-.088,0-.175.009-.263.009a9.887,9.887,0,0,0-2,.289,10.862,10.862,0,0,0-3.327,1.515,12.348,12.348,0,0,0-2.224,1.97,13.24,13.24,0,0,0-1.164,1.611c-.245.411-.368.622-.368.622s.035-.245.105-.727a10.268,10.268,0,0,1,.6-2.022,10.9,10.9,0,0,1,1.795-2.845c.114-.123.219-.254.333-.385s.254-.236.376-.359.254-.254.394-.368.289-.236.438-.35a12.169,12.169,0,0,1,2.031-1.278A12.673,12.673,0,0,1,22.938.3L23.28.219l.175-.035.184-.009c.254-.035.508-.061.762-.1l.193-.026L24.75.044c.105-.009.21-.009.315-.018s.21-.009.315-.018L25.538,0,25.8.009a12.546,12.546,0,0,1,3.064.429A11.315,11.315,0,0,1,30.4.963a13.035,13.035,0,0,1,1.488.735A12.76,12.76,0,0,1,37.909,10c.07.3.114.6.166.893.035.3.079.6.1.9l.026.455.009.5v.245l-.009.184-.018.376c-.009.131,0,.053-.009.088v.026l-.009.053-.009.114-.018.228a4.272,4.272,0,0,1-.053.455l-.061.447-.088.447c-.053.3-.14.587-.21.884-.088.289-.175.578-.28.867a12.753,12.753,0,0,1-7.03,7.451,12.525,12.525,0,0,1-3.152.867,13.616,13.616,0,0,1-1.567.114h-.385c-.14-.009-.271-.009-.411-.018-.3-.009-.482-.044-.7-.061l-.21-.026-.184-.035c-.123-.018-.245-.044-.368-.061s-.236-.044-.359-.061l-.175-.035-.175-.044c-.236-.061-.464-.123-.692-.184l-.166-.044-.166-.061c-.114-.044-.219-.079-.324-.123a11.787,11.787,0,0,1-2.373-1.191,11.48,11.48,0,0,1-3.2-3.178,11.03,11.03,0,0,1-1.418-3.047,10.324,10.324,0,0,1-.341-2.084C14.017,14.866,14.017,14.612,14.017,14.612Z" fill="#414b46"/>
        <path id="パス_2240" data-name="パス 2240" d="M24.059,25.547s.114.228.333.648a13.725,13.725,0,0,0,1.059,1.681,12.041,12.041,0,0,0,2.084,2.11,10.754,10.754,0,0,0,3.222,1.725,10.167,10.167,0,0,0,1.979.42l.254.026.131.018.131.009c.175.009.35.018.525.018l.131.009a.663.663,0,0,0,.131-.009c.088-.009.175-.009.263-.018s.175-.009.271-.009l.131-.009h.035l.079-.009c.21-.018.455-.044.587-.07l.245-.035L35.913,32a9.032,9.032,0,0,0,1.059-.289,10.106,10.106,0,0,0,2.014-.963,9.342,9.342,0,0,0,3.134-3.292,9.465,9.465,0,0,0,.5-1.042,9.585,9.585,0,0,0,.368-1.1c.053-.184.088-.376.131-.569l.044-.289c.018-.1.035-.193.044-.289l.035-.289.018-.289c.009-.1.018-.193.018-.289V23.07l-.009-.376v-.184l-.009-.123-.018-.254-.035-.289c-.018-.193-.061-.385-.088-.578-.044-.193-.079-.376-.131-.569a10.183,10.183,0,0,0-.368-1.1,8.168,8.168,0,0,0-.508-1.042,9.316,9.316,0,0,0-3.134-3.283,9.881,9.881,0,0,0-2.014-.963,10.108,10.108,0,0,0-2.136-.455l-.07-.009h.009l-.158-.009c-.105,0-.21-.009-.315-.009s-.21-.009-.315-.009l-.158-.009-.123.009c-.158.009-.315.009-.473.018H33.1l-.131.018-.254.026a9.6,9.6,0,0,0-1.97.42,10.754,10.754,0,0,0-3.222,1.725,12.119,12.119,0,0,0-2.092,2.11,13.981,13.981,0,0,0-1.059,1.681c-.219.42-.333.648-.333.648s.018-.254.061-.727a10.359,10.359,0,0,1,.473-2.057,10.986,10.986,0,0,1,1.611-2.95c.105-.131.2-.263.306-.4.114-.123.236-.254.35-.385s.245-.263.376-.394.271-.254.411-.376a12.557,12.557,0,0,1,1.952-1.41,12.13,12.13,0,0,1,2.451-1.033l.333-.105.166-.053.184-.035c.245-.044.5-.1.753-.14l.193-.035.158-.018c.105-.009.21-.026.315-.035s.21-.026.315-.035l.158-.018.263-.009a12.809,12.809,0,0,1,3.082.228,12.481,12.481,0,0,1,1.558.429,13.519,13.519,0,0,1,1.532.639,12.808,12.808,0,0,1,6.549,7.9c.088.289.149.587.228.884.053.3.123.6.158.893l.061.455.035.49.018.245.009.184.009.376v.28l-.009.228a3.968,3.968,0,0,1-.026.455l-.035.455-.061.455c-.035.3-.105.6-.158.893-.07.3-.131.6-.228.884A13.037,13.037,0,0,1,46.122,29.9a12.822,12.822,0,0,1-5.078,4.614,12.455,12.455,0,0,1-3.091,1.068,13.848,13.848,0,0,1-1.558.21l-.385.026c-.14,0-.271.009-.411.009-.3.009-.482-.009-.7-.018l-.21-.009-.184-.018c-.123-.018-.245-.026-.368-.044s-.245-.026-.359-.044l-.184-.018-.175-.035c-.236-.044-.473-.1-.7-.14l-.175-.035-.166-.053c-.114-.035-.228-.07-.333-.105A11.844,11.844,0,0,1,29.6,34.276a11.575,11.575,0,0,1-3.4-2.968,11.117,11.117,0,0,1-1.611-2.95A9.766,9.766,0,0,1,24.12,26.3C24.076,25.8,24.059,25.547,24.059,25.547Z" fill="#abb023"/>
        <path id="パス_2241" data-name="パス 2241" d="M21.809,22.658s-.228.114-.648.333A13.725,13.725,0,0,0,19.48,24.05a12.119,12.119,0,0,0-2.11,2.092,10.754,10.754,0,0,0-1.725,3.222,10.167,10.167,0,0,0-.42,1.979c-.009.088-.018.175-.026.254l-.018.131v.131c-.009.175-.018.35-.018.525l-.009.131a.663.663,0,0,0,.009.131c.009.088.009.175.018.271s.009.175.009.271l.009.131v.035l.009.079c.026.21.044.455.07.587l.035.245.053.263a9.032,9.032,0,0,0,.289,1.059,10.106,10.106,0,0,0,.963,2.014,9.342,9.342,0,0,0,3.292,3.134,9.465,9.465,0,0,0,1.042.5,9.584,9.584,0,0,0,1.1.368c.184.053.376.088.569.131l.289.044c.1.018.193.035.289.044l.289.035.289.018c.1.009.193.018.289.018H24.3l.376-.009h.184l.123-.009.254-.018.289-.035c.193-.018.385-.061.578-.088.193-.044.376-.079.569-.131a9.585,9.585,0,0,0,1.1-.368,8.168,8.168,0,0,0,1.042-.508A9.316,9.316,0,0,0,32.1,37.594a9.881,9.881,0,0,0,.963-2.014,10.108,10.108,0,0,0,.455-2.136l.009-.07v.009l.009-.158c0-.105.009-.21.009-.315s.009-.21.009-.315v-.158l-.009-.123c-.009-.158-.009-.315-.018-.473v-.123l-.018-.131c-.009-.088-.018-.175-.026-.254a9.811,9.811,0,0,0-.42-1.979,10.754,10.754,0,0,0-1.725-3.222,12.119,12.119,0,0,0-2.11-2.092,13.3,13.3,0,0,0-1.69-1.059c-.42-.219-.648-.333-.648-.333s.254.018.727.061a10.359,10.359,0,0,1,2.057.473,10.986,10.986,0,0,1,2.95,1.611c.131.105.263.2.4.306.123.114.254.236.385.35s.263.245.394.376.254.271.376.411a12.556,12.556,0,0,1,1.41,1.952,12.13,12.13,0,0,1,1.033,2.451c.035.114.07.219.105.333l.053.166.035.184c.044.245.1.5.14.753l.035.193.018.158c.009.105.026.21.035.315s.026.21.035.315l.018.158.009.263a12.777,12.777,0,0,1-.228,3.082,12.48,12.48,0,0,1-.429,1.558,13.519,13.519,0,0,1-.639,1.532,12.808,12.808,0,0,1-7.9,6.549c-.289.088-.587.149-.884.228-.3.053-.6.123-.893.158l-.455.061-.49.035-.245.018-.184.009-.376.009h-.289l-.228-.009a3.969,3.969,0,0,1-.455-.026l-.455-.035-.455-.061c-.3-.035-.6-.105-.893-.158-.3-.07-.6-.131-.884-.228a13.037,13.037,0,0,1-3.283-1.471,12.822,12.822,0,0,1-4.614-5.078,12.455,12.455,0,0,1-1.068-3.091A13.847,13.847,0,0,1,11.548,35c-.009-.131-.018-.254-.026-.385s-.009-.271-.009-.411c-.009-.3.009-.482.018-.7l.009-.21.018-.184c.018-.123.026-.245.044-.368s.026-.245.044-.368l.026-.184.035-.175c.044-.236.1-.473.14-.7l.035-.175.053-.166c.035-.114.07-.228.105-.333a12.13,12.13,0,0,1,1.033-2.451,11.575,11.575,0,0,1,2.968-3.4,11.118,11.118,0,0,1,2.95-1.611,9.885,9.885,0,0,1,2.057-.473C21.555,22.684,21.809,22.658,21.809,22.658Z" fill="#414b46"/>
        <path id="パス_2242" data-name="パス 2242" d="M24.059,20.443s-.114-.228-.333-.648a13.724,13.724,0,0,0-1.059-1.681A12.357,12.357,0,0,0,20.583,16a10.754,10.754,0,0,0-3.222-1.725,10.307,10.307,0,0,0-1.979-.42l-.254-.026L15,13.815h-.131c-.175-.009-.35-.018-.525-.018l-.131-.009a.663.663,0,0,0-.131.009c-.088.009-.175.009-.263.018s-.175.009-.271.009l-.131.009h-.035l-.079.009c-.21.026-.455.044-.587.07l-.245.035L12.2,14a9.032,9.032,0,0,0-1.059.289,10.106,10.106,0,0,0-2.014.963A9.342,9.342,0,0,0,6,18.543a9.464,9.464,0,0,0-.5,1.042,9.585,9.585,0,0,0-.368,1.1c-.053.184-.088.376-.131.569l-.044.289c-.018.1-.035.193-.044.289l-.035.289-.018.289c-.009.1-.018.193-.018.289v.228l.009.376v.184l.009.131.018.254.035.289c.018.193.061.385.088.578.044.193.079.376.131.569a9.585,9.585,0,0,0,.368,1.1,8.167,8.167,0,0,0,.508,1.042A9.316,9.316,0,0,0,9.14,30.739a9.881,9.881,0,0,0,2.014.963,10.108,10.108,0,0,0,2.136.455l.07.009h-.009l.158.009c.105,0,.21.009.315.009s.21.009.315.009H14.3l.123-.009c.158-.009.315-.018.473-.018h.123l.131-.018.254-.026a9.6,9.6,0,0,0,1.97-.42,10.754,10.754,0,0,0,3.222-1.725,12.119,12.119,0,0,0,2.092-2.11,13.981,13.981,0,0,0,1.059-1.681c.219-.42.333-.648.333-.648s-.018.254-.061.727a10.359,10.359,0,0,1-.473,2.057,10.986,10.986,0,0,1-1.611,2.95c-.105.131-.2.263-.306.4-.114.123-.236.254-.35.385s-.245.263-.376.394-.271.254-.411.376a12.556,12.556,0,0,1-1.952,1.41,12.13,12.13,0,0,1-2.451,1.033l-.333.105-.166.053-.184.035c-.245.044-.5.1-.753.14l-.193.035-.158.018c-.105.009-.21.026-.315.035s-.21.026-.315.035l-.158.018-.263.009a12.809,12.809,0,0,1-3.082-.228A12.48,12.48,0,0,1,8.606,35.1a13.518,13.518,0,0,1-1.532-.639,12.808,12.808,0,0,1-6.549-7.9c-.088-.289-.149-.587-.228-.884-.053-.3-.123-.6-.158-.893L.079,24.33l-.035-.49-.018-.245-.009-.184L0,23.052v-.28l.009-.228a3.969,3.969,0,0,1,.026-.455l.035-.455.061-.455c.035-.3.105-.6.158-.893.07-.3.131-.6.228-.884a13.037,13.037,0,0,1,1.471-3.283A12.822,12.822,0,0,1,7.065,11.5a12.455,12.455,0,0,1,3.091-1.068,13.848,13.848,0,0,1,1.558-.21L12.1,10.2c.14,0,.271-.009.411-.009.3-.009.482.009.7.018l.21.009.184.018c.123.018.245.026.368.044s.245.026.368.044l.184.018.175.035c.236.044.473.1.7.14l.175.035.166.053c.114.035.228.07.333.105a11.844,11.844,0,0,1,2.443,1.033,11.451,11.451,0,0,1,3.4,2.968,11.117,11.117,0,0,1,1.611,2.95A9.885,9.885,0,0,1,24,19.716C24.033,20.189,24.059,20.443,24.059,20.443Z" fill="#abb023"/>
      </g>
    </g>
  </g>
</svg>
